<?xml version="1.0" encoding="UTF-8"?><svg id="_レイヤー_1" xmlns="http://www.w3.org/2000/svg" viewBox="0 0 20.78 29.16"><defs><style>.cls-1{fill:#fff;stroke:#43ccf8;stroke-miterlimit:10;stroke-width:1.71px;}.cls-2{fill:#43ccf8;}</style></defs><path class="cls-1" d="M19.18,6.33c-.73-1.64-1.94-3.03-3.49-4.02-1.59-1.01-3.42-1.51-5.3-1.45-1.87-.06-3.71,.44-5.3,1.45-1.56,.99-2.76,2.38-3.49,4.02-.73,1.64-.92,3.45-.57,5.23,.4,1.98,1.44,3.85,3.11,5.57,2.52,2.6,4.91,6.51,5.81,10.65l.04,.2s.01,.06,.03,.08c.02,.04,.04,.08,.07,.11,.04,.05,.1,.08,.16,.11,.04,.01,.09,.02,.13,.02,0,0,0,0,0,0,.05,0,.09,0,.13-.02,.07-.02,.12-.06,.17-.11,.03-.03,.05-.07,.07-.11,.01-.03,.02-.05,.03-.08l.04-.2c.9-4.14,3.29-8.05,5.81-10.65,1.67-1.72,2.71-3.59,3.11-5.57,.36-1.78,.16-3.58-.57-5.23Z"/><circle class="cls-2" cx="10.39" cy="10.19" r="2.77"/></svg>